<?xml version="1.0" standalone="no"?>
<!DOCTYPE svg PUBLIC "-//W3C//DTD SVG 20010904//EN"
 "http://www.w3.org/TR/2001/REC-SVG-20010904/DTD/svg10.dtd">
<svg version="1.0" xmlns="http://www.w3.org/2000/svg"
 width="300.000000pt" height="300.000000pt" viewBox="0 0 300.000000 300.000000"
 preserveAspectRatio="xMidYMid meet">
<metadata>
Created by potrace 1.11, written by Peter Selinger 2001-2013
</metadata>
<g transform="translate(0.000000,300.000000) scale(0.100000,-0.100000)"
fill="#000000" stroke="none">
<path d="M1347 2495 c-150 -51 -267 -220 -273 -390 -1 -33 4 -75 11 -92 13
-31 12 -34 -18 -67 -75 -80 -126 -177 -142 -271 -9 -56 -15 -216 -9 -227 3 -5
8 -37 10 -71 2 -34 13 -102 24 -152 11 -49 23 -101 25 -115 5 -22 20 -77 45
-165 4 -16 16 -64 25 -105 15 -68 20 -78 60 -110 24 -19 53 -47 64 -61 l20
-27 -69 -52 c-67 -49 -82 -56 -141 -65 -45 -6 -159 -57 -213 -93 -76 -52 -206
-190 -206 -218 0 -8 -5 -14 -12 -14 -6 0 -8 -3 -5 -7 4 -3 1 -13 -6 -22 -13
-15 -47 -113 -54 -154 -3 -16 58 -17 1199 -15 l1203 3 -2 40 c-1 42 -12 160
-17 185 -1 8 -6 35 -10 60 -11 69 -12 73 -24 103 -7 16 -12 33 -12 38 0 20
-41 89 -70 119 -17 17 -56 43 -87 57 -48 22 -73 27 -172 29 -64 2 -134 -1
-155 -6 -38 -8 -42 -7 -81 33 -65 67 -138 97 -277 113 -61 7 -69 12 -47 24 16
9 17 55 4 180 -3 25 -8 72 -11 105 -4 33 -8 170 -9 304 -3 278 -8 344 -31 421
-44 149 -145 264 -266 303 -13 5 -15 13 -11 34 3 15 6 64 6 108 0 113 -38 186
-114 225 -48 25 -107 31 -152 15z"/>
</g>
</svg>
